#!OML:ASF X:\für Bonn\!DataBase\2005_08_12_Daniel\c3d\Daniel.ASF
:FULLY-SPECIFIED
:DEGREES
107
root 2.32383 17.3988 -19.658 183.867 167.266 -177.459
lowerback 65.1757 -4.79001 10.7478
upperback 13.0264 1.65343 -2.66898
thorax -6.17321 1.56696 -8.22958
lowerneck 7.27768 -6.22691 -2.72903
upperneck 5.42772 -8.26672 0.296073
head 0.608662 -4.08803 0.652178
rclavicle 1.59028e-015 -3.26007e-014
rhumerus 42.4774 -36.9666 -97.9725
rradius 5.68179
rwrist 44.1434
rhand -21.9102 12.4549
rfingers 7.12502
rthumb 4.49546 -17.4774
lclavicle 1.59028e-015 -3.26007e-014
lhumerus -24.1312 -5.03533 90.5256
lradius 66.0171
lwrist 3.00089
lhand -16.6814 -10.1548
lfingers 7.12502
lthumb 9.54274 19.6091
rfemur -28.495 2.11146 7.70972
rtibia 33.0549
rfoot -9.09656 -11.9744
rtoes -17.0711
lfemur -33.3779 -12.0607 -20.4853
ltibia 38.1036
lfoot -7.38332 -2.77676
ltoes -9.22071
108
root 2.2898 17.3933 -19.6459 184.404 167.07 -177.274
lowerback 65.9312 -4.99828 10.9043
upperback 12.868 1.63644 -2.6961
thorax -6.31916 1.56289 -8.30407
lowerneck 7.16777 -6.28144 -2.90627
upperneck 5.28884 -8.35101 0.374181
head 0.596002 -4.13232 0.7044
rclavicle 2.38542e-014 -3.18055e-015
rhumerus 43.6699 -36.9656 -98.1839
rradius 5.53053
rwrist 43.8274
rhand -22.1992 12.2556
rfingers 7.12502
rthumb 4.21645 -17.6824
lclavicle 2.38542e-014 -3.18055e-015
lhumerus -24.1958 -5.04759 90.4665
lradius 65.4154
lwrist 2.98639
lhand -16.4864 -10.2861
lfingers 7.12502
lthumb 9.73088 19.4691
rfemur -29.2641 1.56019 7.64434
rtibia 33.5169
rfoot -9.1424 -11.7127
rtoes -17.1346
lfemur -34.0105 -12.3107 -20.4139
ltibia 38.1986
lfoot -7.38776 -2.74383
ltoes -9.44748
109
root 2.25628 17.3875 -19.6335 184.972 166.886 -177.105
lowerback 66.6188 -5.17429 11.0306
upperback 12.728 1.63188 -2.69866
thorax -6.44273 1.56178 -8.34356
lowerneck 7.09956 -6.3296 -3.05665
upperneck 5.10535 -8.42659 0.444617
head 0.561386 -4.17163 0.752328
rclavicle 1.59028e-014 3.18055e-015
rhumerus 44.8923 -36.8996 -98.4097
rradius 5.37238
rwrist 43.4653
rhand -22.5354 12.0948
rfingers 7.12502
rthumb 3.89173 -17.8494
lclavicle 1.59028e-014 3.18055e-015
lhumerus -24.2462 -5.0792 90.4513
lradius 64.8476
lwrist 2.93272
lhand -16.2037 -10.2004
lfingers 7.12502
lthumb 10.0036 19.5419
rfemur -30.0823 1.00933 7.61317
rtibia 34.0057
rfoot -9.20314 -11.4428
rtoes -17.1117
lfemur -34.6979 -12.5361 -20.3086
ltibia 38.3138
lfoot -7.39139 -2.71923
ltoes -9.44692
110
root 2.22301 17.3803 -19.6208 185.531 166.702 -176.934
lowerback 67.2989 -5.34067 11.1472
upperback 12.5824 1.63629 -2.68574
thorax -6.56869 1.56215 -8.36463
lowerneck 7.01524 -6.38245 -3.20555
upperneck 4.9684 -8.50567 0.470629
head 0.541919 -4.21244 0.784934
rclavicle 3.97569e-014 -3.97569e-016
rhumerus 46.0269 -36.8451 -98.5757
rradius 5.26724
rwrist 43.0673
rhand -22.9091 12.0006
rfingers 7.12502
rthumb 3.53088 -17.9499
lclavicle 3.97569e-014 -3.97569e-016
lhumerus -24.2938 -5.08577 90.4747
lradius 64.2435
lwrist 2.76874
lhand -15.893 -10.0801
lfingers 7.12502
lthumb 10.3034 19.6475
rfemur -30.9061 0.472559 7.58442
rtibia 34.537
rfoot -9.28052 -11.1891
rtoes -17.0866
lfemur -35.3784 -12.7204 -20.2228
ltibia 38.4454
lfoot -7.40321 -2.74598
ltoes -9.59064
111
root 2.19017 17.3723 -19.6082 186.108 166.511 -176.745
lowerback 67.9205 -5.52225 11.2747
upperback 12.4562 1.62363 -2.69166
thorax -6.67273 1.55899 -8.40474
lowerneck 6.98452 -6.42983 -3.30666
upperneck 4.76993 -8.57731 0.508348
head 0.493179 -4.24859 0.816672
rclavicle -7.31528e-014 5.68524e-014
rhumerus 47.1619 -36.7904 -98.7691
rradius 5.1627
rwrist 42.751
rhand -23.3276 11.8636
rfingers 7.12502
rthumb 3.12672 -18.0932
lclavicle -7.31528e-014 5.68524e-014
lhumerus -24.3283 -5.16036 90.4783
lradius 63.6581
lwrist 2.5398
lhand -15.6056 -9.824
lfingers 7.12502
lthumb 10.5806 19.8897
rfemur -31.7628 -0.0564619 7.54476
rtibia 35.0955
rfoot -9.38177 -10.962
rtoes -17.0796
lfemur -36.0964 -12.896 -20.1462
ltibia 38.6056
lfoot -7.41809 -2.77941
ltoes -9.74997
112
root 2.15777 17.3613 -19.5949 186.692 166.334 -176.536
lowerback 68.5482 -5.67943 11.3567
upperback 12.3085 1.6136 -2.68109
thorax -6.80217 1.55111 -8.40885
lowerneck 6.90635 -6.47422 -3.42288
upperneck 4.62694 -8.64319 0.508908
head 0.468185 -4.2822 0.836475
rclavicle 4.77083e-014 2.78299e-015
rhumerus 48.2286 -36.7076 -98.9063
rradius 5.0865
rwrist 42.4329
rhand -23.7532 11.7069
rfingers 7.12502
rthumb 2.71571 -18.2555
lclavicle 4.77083e-014 2.78299e-015
lhumerus -24.4314 -5.23752 90.5319
lradius 63.1013
lwrist 2.28608
lhand -15.3698 -9.46869
lfingers 7.12502
lthumb 10.8081 20.2332
rfemur -32.6418 -0.562342 7.48021
rtibia 35.695
rfoot -9.52322 -10.7289
rtoes -16.9939
lfemur -36.8212 -13.0693 -20.087
ltibia 38.7818
lfoot -7.44504 -2.80455
ltoes -9.82445
113
root 2.12668 17.3505 -19.5812 187.278 166.157 -176.327
lowerback 69.1505 -5.86125 11.4642
upperback 12.1709 1.58929 -2.69337
thorax -6.91783 1.54107 -8.44325
lowerneck 6.6672 -6.50684 -3.57913
upperneck 4.58528 -8.6912 0.549661
head 0.503872 -4.30871 0.866662
rclavicle 6.36111e-015 7.27552e-014
rhumerus 49.3493 -36.5979 -99.1046
rradius 4.93292
rwrist 42.1543
rhand -24.2613 11.5795
rfingers 7.12502
rthumb 2.22495 -18.3886
lclavicle 6.36111e-015 7.27552e-014
lhumerus -24.5688 -5.35168 90.5526
lradius 62.5989
lwrist 1.98752
lhand -15.1207 -9.13309
lfingers 7.12502
lthumb 11.0483 20.5561
rfemur -33.5259 -1.03546 7.41803
rtibia 36.322
rfoot -9.69982 -10.5212
rtoes -16.9751
lfemur -37.5593 -13.2124 -20.0453
ltibia 38.9832
lfoot -7.48304 -2.85151
ltoes -9.98387
114
root 2.09685 17.3376 -19.5676 187.868 165.997 -176.099
lowerback 69.7849 -6.0257 11.5446
upperback 12.0149 1.57403 -2.69735
thorax -7.05143 1.53163 -8.46064
lowerneck 6.29115 -6.56254 -3.64839
upperneck 4.63125 -8.75666 0.485514
head 0.580623 -4.34301 0.843619
rclavicle 3.18055e-015 1.19271e-014
rhumerus 50.3667 -36.5309 -99.2223
rradius 4.89345
rwrist 41.9304
rhand -24.6823 11.4636
rfingers 7.12502
rthumb 1.81842 -18.5084
lclavicle 3.18055e-015 1.19271e-014
lhumerus -24.776 -5.47772 90.598
lradius 62.137
lwrist 1.65064
lhand -14.8951 -8.82065
lfingers 7.12502
lthumb 11.2659 20.8568
rfemur -34.4338 -1.45176 7.32197
rtibia 36.9719
rfoot -9.88831 -10.3736
rtoes -16.8284
lfemur -38.304 -13.3733 -20.0109
ltibia 39.2011
lfoot -7.53368 -2.88646
ltoes -10.1264
115
root 2.07006 17.3231 -19.5541 188.473 165.832 -175.87
lowerback 70.4165 -6.19448 11.6232
upperback 11.8354 1.55346 -2.71215
thorax -7.2107 1.5177 -8.48825
lowerneck 5.88654 -6.62295 -3.60331
upperneck 4.71985 -8.81841 0.347329
head 0.666357 -4.37405 0.777464
rclavicle 3.81667e-014 4.33351e-014
rhumerus 51.2618 -36.4729 -99.331
rradius 4.97888
rwrist 41.7043
rhand -25.0606 11.3911
rfingers 7.12502
rthumb 1.45304 -18.5837
lclavicle 3.81667e-014 4.33351e-014
lhumerus -25.0127 -5.61628 90.6189
lradius 61.6989
lwrist 1.3001
lhand -14.5987 -8.51244
lfingers 7.12502
lthumb 11.5518 21.1492
rfemur -35.3586 -1.88127 7.21994
rtibia 37.6403
rfoot -10.08 -10.1888
rtoes -16.8666
lfemur -39.0793 -13.5124 -19.9927
ltibia 39.4431
lfoot -7.58413 -2.93768
ltoes -10.2058
116
root 2.04471 17.3085 -19.54 189.05 165.675 -175.624
lowerback 71.0384 -6.36558 11.6817
upperback 11.704 1.51389 -2.74887
thorax -7.31642 1.5042 -8.52432
lowerneck 5.40334 -6.6795 -3.4619
upperneck 4.76924 -8.87062 0.205767
head 0.747665 -4.39986 0.692958
rclavicle 8.26944e-014 4.92986e-014
rhumerus 52.2514 -36.3938 -99.5314
rradius 5.05625
rwrist 41.5112
rhand -25.436 11.2328
rfingers 7.12502
rthumb 1.09051 -18.7442
lclavicle 8.26944e-014 4.92986e-014
lhumerus -25.1695 -5.8111 90.6143
lradius 61.2555
lwrist 0.987896
lhand -14.3756 -8.31051
lfingers 7.12502
lthumb 11.7669 21.339
rfemur -36.2519 -2.25564 7.09347
rtibia 38.3306
rfoot -10.3066 -10.0602
rtoes -16.9212
lfemur -39.8272 -13.6314 -20.0109
ltibia 39.7026
lfoot -7.65896 -3.0077
ltoes -10.3602
117
root 2.01957 17.2914 -19.5265 189.653 165.52 -175.39
lowerback 71.6032 -6.51442 11.7325
upperback 11.5817 1.48907 -2.75921
thorax -7.41185 1.49413 -8.53367
lowerneck 4.94289 -6.73127 -3.32884
upperneck 4.81163 -8.91719 0.00826538
head 0.820504 -4.42324 0.594042
rclavicle 6.36111e-015 8.74653e-015
rhumerus 53.2169 -36.3123 -99.6776
rradius 5.11365
rwrist 41.3672
rhand -25.7903 11.1028
rfingers 7.12502
rthumb 0.748273 -18.8756
lclavicle 6.36111e-015 8.74653e-015
lhumerus -25.3564 -5.98359 90.6322
lradius 60.892
lwrist 0.704018
lhand -14.0846 -8.12687
lfingers 7.12502
lthumb 12.0475 21.5064
rfemur -37.1936 -2.61196 6.97293
rtibia 39.044
rfoot -10.5532 -9.91959
rtoes -16.7782
lfemur -40.6221 -13.7035 -20.0131
ltibia 39.9877
lfoot -7.71711 -3.12901
ltoes -10.3524
118
root 1.9949 17.2744 -19.5118 190.25 165.382 -175.125
lowerback 72.1787 -6.63969 11.7348
upperback 11.4598 1.46019 -2.76122
thorax -7.50932 1.48078 -8.51268
lowerneck 4.41325 -6.79663 -3.1588
upperneck 4.91321 -8.97521 -0.294797
head 0.916082 -4.4529 0.453949
rclavicle 3.18055e-014 5.74488e-014
rhumerus 54.1933 -36.1989 -99.8161
rradius 5.14484
rwrist 41.2539
rhand -26.1525 10.9985
rfingers 7.12502
rthumb 0.398482 -18.9808
lclavicle 3.18055e-014 5.74488e-014
lhumerus -25.4889 -6.10898 90.6808
lradius 60.4913
lwrist 0.410046
lhand -13.7394 -8.05431
lfingers 7.12502
lthumb 12.3804 21.5591
rfemur -38.1281 -2.9227 6.81359
rtibia 39.7813
rfoot -10.8158 -9.8374
rtoes -16.7361
lfemur -41.4001 -13.7365 -20.0759
ltibia 40.2964
lfoot -7.79534 -3.27406
ltoes -10.4249
